# xmcd CD database file
#
# Track frame offsets:
#	150
#	40167
#	82806
#	102477
#	156077
#	210252
#	231343
#
# Disc length: 3204 seconds
#
# Revision: 0
# Processed by: cddbd v1.5.2PL0 Copyright (c) Steve Scherf et al.
# Submitted via: CDex 1.70beta2
#
DISCID=4c0c8207
DTITLE=Don Pfäffli Tonus - Sun
DYEAR=1997
DGENRE=Jazz
TTITLE0=Part 27
TTITLE1=Part 26
TTITLE2=Part 31
TTITLE3=Part 23
TTITLE4=Part 30
TTITLE5=Part 22
TTITLE6=Part 24
EXTD=YEAR: 1997
EXTT0=
EXTT1=
EXTT2=
EXTT3=
EXTT4=
EXTT5=
EXTT6=
PLAYORDER=
